<svg xmlns="http://www.w3.org/2000/svg" xmlns:xlink="http://www.w3.org/1999/xlink" viewBox="0 0 144.17 144.17"><defs><style>.cls-1{fill:none;}.cls-2{fill:#1e2538;}.cls-3,.cls-4{fill:#0090b7;}.cls-4{stroke-miterlimit:10;stroke-width:4px;stroke:url(#New_Pattern_Swatch_1);}.cls-5{fill:#46375e;}.cls-6{fill:#733782;}</style><pattern id="New_Pattern_Swatch_1" data-name="New Pattern Swatch 1" width="51.52" height="51.52" patternUnits="userSpaceOnUse" viewBox="0 0 51.52 51.52"><rect class="cls-1" width="51.52" height="51.52"/><rect class="cls-2" width="51.52" height="51.52"/></pattern></defs><g id="Layer_2" data-name="Layer 2"><g id="Layer_1-2" data-name="Layer 1"><circle class="cls-3" cx="72.08" cy="72.08" r="72.08"/><path class="cls-2" d="M41.49,26.37c-.77,1.09-3.13,4.43-2.33,8.5.84,4.24,4.3,6.45,8,8.78C53.24,47.54,63.45,54.05,72,74.22c6,14.1,7,33.94,7.73,48.43.29,5.82.55,10.85,1.07,14.57a22.47,22.47,0,0,0,1.37,5.55c.08.19.17.38.25.55A72,72,0,1,1,126,24.48a71.43,71.43,0,0,0-9.37-4.94,93.12,93.12,0,0,0-36.57-7.46h0C62,12.08,47.9,17.29,41.49,26.37Z"/><circle class="cls-4" cx="68.3" cy="79.7" r="58.9"/><path class="cls-5" d="M95.3,71.84A12.91,12.91,0,0,1,85,76.47c-6.75-.2-20.85.9-28,7.34s-1.66,14.88-1.66,14.88,1.33,1.17,5.83,2a23.35,23.35,0,0,0,8.3-.11,16.74,16.74,0,0,1-6.77-3.63,8.64,8.64,0,0,1-2.59-5.85s2.55-6.19,18.24-7.67c9.44-.89,14.8-.08,20-4S107.15,67,107.15,67Z"/><path class="cls-5" d="M48.46,49.9s-7.24,2.8-5.68,9.79c1.24,5.59,7.88,19.65,7.33,25.62S46,95.75,37,99.13s-13,2.08-15.43-.25-1.93-7.82.13-10.1a7.4,7.4,0,0,1,4.37-2.5s-4.86,5.68,0,9c3.41,2.31,10.26-1.66,14.12-4.39a6.22,6.22,0,0,0,3.27-4.27c.25-1.73.12-4.24-1.21-8.85-2.16-7.55-5.27-11.66-5-16.6S40.38,51,48.46,49.9Z"/><path class="cls-6" d="M99.33,102.44a20.21,20.21,0,0,1-1.66-5.1A19.91,19.91,0,0,1,98.34,87c2.88-8.19,7.27-5,8.53-2.49s5.14,5.28,6.23,6.15-2,7.85-3.45,8.3c-1.19.38-6.9-1.25-11.93-1.57-.87-.06-7.39,2.41-8,2.46-9.88,2.2-20.29-3-22.93-8.78,6,4.59,20.63,7.19,28,1.52,3.13-2.4,7.48,0,8.71.15,3.27.53,3.49-.33,3.42-.85-2.26-2.13-3.12-3.83-4.61-3.25C100.42,89.34,98.76,102.11,99.33,102.44Z"/><path class="cls-5" d="M54.28,54.54s-2.7,1-2.57,3.14,2.73,2.82,4.35,2a7.24,7.24,0,0,0,1.84-1.19,5,5,0,0,0,3.63,1.39c2.38,0,4.11-.59,4.42-2.15a2.52,2.52,0,0,0-1.3-3,2.23,2.23,0,0,0-1.58-.1s1.56,1.23,1,2.27-2.8,1.32-4.49.22a14.19,14.19,0,0,1-2.17-1.6s-1.06,2.16-1.93,2.27-2.1-.15-2-1.25A5.8,5.8,0,0,1,54.28,54.54Z"/><path class="cls-5" d="M31.75,66.7l-1,3,3.2-.54a6.24,6.24,0,0,1-2.38,2.31,15,15,0,0,1-1.78.81l.24.36s3.45-.48,4.75-2.26a5.83,5.83,0,0,0,1.09-3.72Z"/><polygon class="cls-6" points="77.26 57.82 78.63 58.42 92.54 53.12 90.52 52.7 77.26 57.82"/><polygon class="cls-6" points="50.14 52.15 51.51 52.76 65.42 47.45 63.4 47.03 50.14 52.15"/><path class="cls-5" d="M83,88.7a11.86,11.86,0,0,0,5.77.55c2.83-.56,3.71-1.68,3.71-1.68s1.14-1.35,1.06-1.94-1-.09-.85.51,2.69,1,2.69,1l-.26.61s-3,0-3.72-.91A1.84,1.84,0,0,1,92.81,84c1.6,0,2.38.71,2,2a5.53,5.53,0,0,1-5.2,4.09A12.29,12.29,0,0,1,83,88.7Z"/><path class="cls-6" d="M64.79,92.21s-6.87-5-8-13.07S57.92,66.89,66,68.78,86.15,74,94.35,74.27l8.36.43c1.91-2.28,3.09-5.09,4.44-7.73,0,0-5,2.08-15.35.31s-14.36-2-24.13-4.79S50.35,65.88,50.35,72.1,52.3,85.35,64.79,92.21Z"/><path class="cls-5" d="M67.34,107.08l2.08-6.55c-12.7-2.7-26.52-2.4-32.12-24.27,0,0-1.06,13.44,8.27,22.21S67.34,107.08,67.34,107.08Z"/></g></g></svg>