<svg xmlns="http://www.w3.org/2000/svg" viewBox="0 0 422 422"><defs><style>.cls-1{fill:#01986c;}.cls-2{fill:#373d56;}.cls-3{fill:#8c00ef;}.cls-4{fill:#00bef9;}</style></defs><g id="Layer_2" data-name="Layer 2"><g id="Layer_1-2" data-name="Layer 1"><path class="cls-1" d="M120.2,389.05a.52.52,0,0,1,.49.47l-.7.28Z"/></g><g id="Logo"><rect id="circle_Reactangle" data-name="circle Reactangle" class="cls-2" width="422" height="422" rx="211"/><path id="react_3" class="cls-3" d="M220.79,130.22c-21,20.9-41.88,41.86-62.93,62.67-11,10.83-27.12,9.24-35.15-3.2-5.72-8.86-4.23-20,4-28.3q33.47-33.58,67-67.06c4.1-4.11,8.08-8.37,12.39-12.27,8.21-7.41,20.39-8,28.31-.56C244.52,90.9,254,101,263.69,110.74c-13.48-5.18-20.59-3.59-30.5,6.74C229.09,121.76,224.93,126,220.79,130.22Z"/><path class="cls-3" d="M321.36,300.69c-9.43,9.55-18.63,19.35-28.37,28.58-8.66,8.2-21.39,7.5-30.34-1.36-19.87-19.67-39.57-39.5-59.34-59.26-6.29-6.29-12.63-12.53-18.86-18.88-9.43-9.61-9.69-23.17-.72-32.1s22.54-8.67,32.12.83q31.5,31.25,62.86,62.63c4.14,4.26,8.48,8.36,12.4,12.83C299.61,303.67,309.66,305.74,321.36,300.69Z"/><path id="react_up_2" class="cls-4" d="M321.36,300.69c-11.7,5.05-21.75,3-30.25-6.73-3.92-4.47-8.26-8.57-12.4-12.83q31.32-31.36,62.68-62.71c9.4-9.37,23.32-9.6,32.07-.73,9,9.08,8.74,22.52-.79,32.06C355.64,266.8,338.47,283.72,321.36,300.69Z"/><path id="react_up_1" class="cls-4" d="M220.79,130.22c4.14-4.24,8.3-8.46,12.4-12.74,9.91-10.33,17-11.92,30.5-6.74,17.65,17.53,35.51,34.84,52.83,52.67,8.34,8.58,7.32,22.22-1.2,30.47a21.94,21.94,0,0,1-30.92-.17C263.1,172.64,242,151.4,220.79,130.22Z"/><path class="cls-3" d="M149.57,270.25a338.88,338.88,0,0,1,28.49,28.36c7.76,8.65,6.19,22.65-2.43,30.5a22.45,22.45,0,0,1-31.44-.76q-31.31-31-62.41-62.3c-3.85-3.85-7.85-7.57-11.43-11.65a22.42,22.42,0,0,1-1.16-28.16c6.42-8.66,17-11.5,27-7.21-6.41,3-12.7,6.2-17.37,11.8-5.68,6.81-5.59,15.13.29,21.73a36.66,36.66,0,0,0,12.59,9.28A106.25,106.25,0,0,0,149.57,270.25Z"/><path id="react_up_3" class="cls-4" d="M149.57,270.25a106.25,106.25,0,0,1-57.83-8.41,36.66,36.66,0,0,1-12.59-9.28c-5.88-6.6-6-14.92-.29-21.73,4.67-5.6,11-8.79,17.37-11.8a10.84,10.84,0,0,1,6,3.44Q126,246.29,149.57,270.25Z"/></g></g></svg>